<svg id="svg" xmlns="http://www.w3.org/2000/svg" xmlns:xlink="http://www.w3.org/1999/xlink" width="400" height="95.27065527065527" viewBox="0, 0, 400,95.27065527065527" version="1.1"><g id="svgg"><path id="path0" d="M17.492 17.493 L 0.000 34.987 0.000 47.750 L -0.000 60.514 17.379 77.892 L 34.759 95.271 47.636 95.271 L 60.514 95.271 77.892 77.891 L 95.271 60.512 95.271 47.635 L 95.271 34.759 77.892 17.379 L 60.514 0.000 47.749 0.000 L 34.985 0.000 17.492 17.493 M70.942 22.281 L 84.561 35.902 81.994 38.462 L 79.426 41.023 63.246 24.842 L 47.067 8.661 52.195 8.661 L 57.323 8.661 70.942 22.281 M38.634 13.449 L 41.136 15.958 24.898 32.195 L 8.661 48.433 8.661 43.305 L 8.661 38.178 22.278 24.559 C 29.768 17.069,35.949 10.940,36.015 10.940 C 36.080 10.940,37.259 12.069,38.634 13.449 M217.028 22.124 C 202.717 23.983,193.862 37.773,196.830 53.580 C 199.588 68.276,213.717 76.639,228.531 72.346 C 236.176 70.131,242.432 62.410,242.505 55.100 C 242.506 55.006,239.698 54.929,236.265 54.929 L 230.023 54.929 229.871 55.942 C 228.859 62.692,220.191 65.382,214.097 60.838 C 207.844 56.175,207.128 41.702,212.845 35.511 C 218.032 29.893,227.743 31.943,229.525 39.031 L 229.798 40.114 235.924 40.114 L 242.051 40.114 242.050 39.487 C 242.044 37.342,240.411 32.928,238.688 30.400 C 234.462 24.202,225.982 20.961,217.028 22.124 M60.343 35.157 L 72.934 47.751 60.341 60.343 L 47.748 72.934 35.100 60.285 L 22.452 47.635 34.986 35.100 C 41.879 28.205,47.572 22.564,47.635 22.564 C 47.699 22.564,53.417 28.231,60.343 35.157 M131.738 47.534 L 131.738 72.276 146.040 72.197 C 162.240 72.108,161.886 72.144,165.926 70.165 C 175.529 65.460,175.874 50.884,166.490 46.364 L 164.672 45.489 166.040 44.808 C 173.759 40.965,172.995 28.823,164.781 24.797 C 161.067 22.977,159.194 22.796,143.989 22.794 L 131.738 22.792 131.738 47.534 M178.689 47.521 L 178.689 72.251 184.957 72.251 L 191.225 72.251 191.225 47.521 L 191.225 22.792 184.957 22.792 L 178.689 22.792 178.689 47.521 M254.359 47.521 L 254.359 72.251 266.496 72.243 C 279.551 72.234,280.622 72.159,283.578 71.036 C 295.450 66.529,295.526 50.115,283.692 46.278 L 282.825 45.997 284.242 45.327 C 292.984 41.192,292.582 28.689,283.567 24.355 C 280.570 22.913,279.285 22.798,266.154 22.795 L 254.359 22.792 254.359 47.521 M369.915 47.521 L 369.915 72.251 372.764 72.251 L 375.613 72.251 375.627 65.128 L 375.641 58.006 378.202 55.575 L 380.762 53.144 387.019 62.693 L 393.276 72.242 396.663 72.246 C 399.549 72.250,400.030 72.201,399.920 71.916 C 399.850 71.732,396.454 66.612,392.375 60.540 C 388.295 54.467,384.957 49.451,384.957 49.393 C 384.957 49.336,387.983 46.446,391.681 42.973 C 395.379 39.499,398.405 36.614,398.405 36.562 C 398.405 36.510,396.738 36.471,394.701 36.475 L 390.997 36.482 383.362 43.932 L 375.726 51.381 375.668 37.087 L 375.609 22.792 372.762 22.792 L 369.915 22.792 369.915 47.521 M279.071 28.925 C 285.203 30.944,285.828 39.701,280.051 42.654 C 278.051 43.677,277.251 43.755,268.775 43.758 L 260.741 43.761 260.741 35.992 L 260.741 28.223 269.117 28.314 C 277.090 28.401,277.569 28.430,279.071 28.925 M156.381 33.172 C 160.294 34.553,160.596 39.804,156.866 41.636 L 155.556 42.279 149.801 42.353 L 144.046 42.428 144.046 37.624 L 144.046 32.821 149.715 32.821 C 154.241 32.821,155.585 32.891,156.381 33.172 M347.464 35.892 C 344.611 36.518,342.911 37.440,340.798 39.506 L 339.373 40.899 339.373 38.683 L 339.373 36.467 336.524 36.467 L 333.675 36.467 333.675 54.359 L 333.675 72.251 336.524 72.251 L 339.373 72.251 339.373 60.886 C 339.373 47.449,339.512 46.400,341.621 43.841 C 345.776 38.800,355.132 39.716,356.688 45.316 C 356.834 45.841,356.921 51.025,356.922 59.202 L 356.923 72.251 359.886 72.251 L 362.849 72.251 362.845 58.860 C 362.840 42.439,362.763 41.924,359.856 38.850 C 357.308 36.156,352.017 34.893,347.464 35.892 M308.392 36.032 C 302.285 37.230,298.145 41.747,298.123 47.236 L 298.120 48.091 300.844 48.091 L 303.569 48.091 303.709 47.236 C 303.786 46.766,303.905 46.074,303.975 45.698 C 305.347 38.295,319.650 38.203,320.184 45.593 C 320.445 49.193,319.164 50.070,311.901 51.267 C 302.286 52.852,298.541 54.713,296.970 58.689 C 296.192 60.657,296.181 64.902,296.949 66.837 C 299.727 73.842,312.249 75.164,318.648 69.128 C 319.523 68.302,320.269 67.667,320.306 67.717 C 320.343 67.766,320.493 68.217,320.639 68.718 C 321.491 71.642,324.215 73.072,327.816 72.486 C 329.612 72.194,329.573 72.252,329.573 69.872 L 329.573 67.748 328.551 67.863 C 325.799 68.174,325.698 67.748,325.696 55.791 C 325.694 43.060,325.353 41.199,322.575 38.753 C 319.763 36.279,313.379 35.053,308.392 36.032 M86.698 52.257 L 86.540 57.393 73.014 70.918 L 59.488 84.442 56.924 81.879 L 54.361 79.316 70.532 63.143 C 79.427 54.248,86.738 47.004,86.780 47.046 C 86.821 47.087,86.784 49.433,86.698 52.257 M279.350 49.739 C 284.839 51.377,287.547 57.001,285.172 61.827 C 283.150 65.933,280.957 66.548,268.319 66.551 L 260.741 66.553 260.741 57.873 L 260.741 49.193 269.459 49.291 C 276.423 49.369,278.413 49.459,279.350 49.739 M157.509 51.312 C 161.886 53.294,162.238 59.306,158.106 61.485 L 156.923 62.108 150.484 62.178 L 144.046 62.248 144.046 56.521 L 144.046 50.794 150.370 50.869 C 155.594 50.931,156.837 51.008,157.509 51.312 M320.233 60.368 C 318.525 69.635,302.564 71.841,302.564 62.810 C 302.564 58.762,304.511 57.262,311.626 55.830 C 315.271 55.096,318.202 54.274,319.544 53.610 L 320.342 53.214 320.406 56.149 C 320.441 57.762,320.363 59.661,320.233 60.368 M48.481 86.717 C 48.455 86.723,46.066 86.694,43.172 86.651 L 37.911 86.573 24.371 73.032 L 10.831 59.490 13.447 56.866 L 16.064 54.242 32.296 70.473 C 41.224 79.400,48.507 86.710,48.481 86.717 M91.624 74.906 C 88.921 75.986,89.091 80.168,91.868 80.916 C 95.140 81.797,97.279 77.916,94.820 75.561 C 94.149 74.918,92.460 74.572,91.624 74.906 M94.416 76.356 C 95.121 77.130,95.268 78.465,94.729 79.202 C 94.249 79.859,93.613 78.551,94.028 77.759 C 94.598 76.669,93.881 75.918,92.236 75.881 C 91.615 75.868,91.576 75.836,91.966 75.661 C 92.710 75.327,93.746 75.622,94.416 76.356 M91.861 79.772 C 92.205 79.772,92.308 79.615,92.308 79.088 C 92.308 78.712,92.408 78.405,92.530 78.405 C 92.652 78.405,92.911 78.712,93.105 79.088 C 93.300 79.464,93.636 79.774,93.852 79.776 C 94.189 79.779,94.196 79.811,93.903 80.000 C 91.948 81.264,89.516 78.506,90.883 76.575 C 91.278 76.017,91.283 76.031,91.348 77.892 C 91.408 79.585,91.459 79.772,91.861 79.772 M93.021 76.825 C 93.385 77.020,93.422 77.134,93.206 77.395 C 92.778 77.911,92.308 77.783,92.308 77.151 C 92.308 76.511,92.376 76.480,93.021 76.825 " fill="#ffffff" fill-rule="evenodd"></path></g></svg>