<svg id="svg" xmlns="http://www.w3.org/2000/svg" xmlns:xlink="http://www.w3.org/1999/xlink" width="400" height="400" viewBox="0 0 400 400" version="1.1"><g id="svgg"><path id="path0" d="M91.916 90.392 L 29.231 153.091 29.231 200.014 L 29.231 246.937 91.930 309.622 L 154.629 372.308 201.545 372.254 L 248.462 372.201 311.923 309.272 L 375.385 246.342 375.385 200.472 L 375.385 154.601 311.916 91.147 L 248.448 27.692 201.525 27.692 L 154.601 27.692 91.916 90.392 M285.029 108.875 L 333.886 157.750 324.994 166.549 L 316.102 175.348 258.443 117.674 L 200.785 60.000 218.478 60.000 L 236.172 60.000 285.029 108.875 M119.636 142.677 L 62.308 200.026 61.870 182.767 L 61.432 165.509 110.304 116.618 L 159.177 67.728 168.071 76.528 L 176.964 85.329 119.636 142.677 M247.188 155.650 L 292.088 200.531 247.198 244.868 C 222.508 269.253,201.957 289.211,201.529 289.218 C 201.100 289.225,180.681 269.154,156.154 244.615 L 111.558 200.000 156.154 155.385 C 180.681 130.846,201.096 110.769,201.519 110.769 C 201.942 110.769,222.493 130.966,247.188 155.650 M342.141 216.538 L 341.191 234.615 292.545 283.444 L 243.900 332.272 235.006 323.472 L 226.113 314.671 284.203 256.566 C 316.152 224.609,342.472 198.462,342.691 198.462 C 342.911 198.462,342.663 206.596,342.141 216.538 M184.306 339.669 L 167.048 340.107 118.235 291.312 L 69.422 242.516 78.172 233.662 L 86.923 224.807 144.244 282.019 L 201.564 339.231 184.306 339.669 M358.956 298.752 C 357.112 299.643,354.778 302.366,353.769 304.802 C 348.829 316.727,364.021 326.888,373.147 317.762 C 383.138 307.771,371.778 292.553,358.956 298.752 M372.308 309.538 C 372.308 312.709,371.778 313.932,370.820 312.973 C 370.001 312.155,369.736 309.940,370.230 308.050 C 371.497 303.205,372.308 303.785,372.308 309.538 " stroke="none"
 fill="#ffffff"  fill-rule="evenodd"></path></g></svg>